<svg version="1.2" xmlns="http://www.w3.org/2000/svg" viewBox="0 0 500 500" width="500" height="500">
	<title>optimism-svg</title>
	<style>
		.s0 { fill: #000000 } 
		.s1 { fill: #ffffff } 
	</style>
	<circle id="Layer" class="s0" cx="250" cy="250" r="250"/>
	<path id="Layer" fill-rule="evenodd" class="s1" d="m177.1 316.4q-22.3 0-36.6-10.5-14-10.7-14-30.4 0-4.1 0.9-10.1 2.4-13.5 7-32.5 12.7-51.6 65.8-51.6 14.5 0 25.9 4.9 11.5 4.7 18 14.3 6.6 9.4 6.6 22.5 0 3.9-1 9.9-2.8 16.7-6.7 32.5-6.6 25.7-22.7 38.5-16.1 12.5-43.2 12.5zm2.7-27q10.5 0 17.8-6.2 7.5-6.2 10.7-18.9 4.3-17.7 6.5-30.8 0.8-3.9 0.8-8.1 0-17-17.8-17-10.5 0-18 6.2-7.4 6.2-10.5 18.9-3.4 12.6-6.8 30.8-0.8 3.7-0.8 7.9 0 17.2 18.1 17.2z"/>
	<path id="Layer" fill-rule="evenodd" class="s1" d="m259.3 314.6q-2.1 0-3.2-1.3-0.9-1.5-0.5-3.4l25.8-122q0.4-2 2.1-3.4 1.7-1.3 3.6-1.3h49.9q20.8 0 33.4 8.7 12.7 8.6 12.7 24.9 0 4.7-1.1 9.8-4.7 21.5-18.9 31.9-14.1 10.3-38.7 10.3h-25.3l-8.6 41.1q-0.4 2-2.1 3.4-1.7 1.3-3.6 1.3zm66.4-71.7q7.9 0 13.7-4.3 6-4.3 7.9-12.4 0.6-3.2 0.6-5.6 0-5.5-3.2-8.3-3.2-3-10.9-3h-22.5l-7.1 33.6z"/>
</svg>